<svg width="30" height="30" viewBox="0 0 30 30" fill="none" xmlns="http://www.w3.org/2000/svg">
<path d="M15 27.5C8.09625 27.5 2.5 21.9037 2.5 15C2.5 8.09625 8.09625 2.5 15 2.5C21.9037 2.5 27.5 8.09625 27.5 15C27.5 21.9037 21.9037 27.5 15 27.5ZM14.5175 16.5162C14.2463 16.7876 13.8965 16.9667 13.5178 17.0282C13.1391 17.0896 12.7506 17.0304 12.4075 16.8587C12.0644 16.6871 11.6759 16.6278 11.2972 16.6893C10.9185 16.7508 10.5687 16.9299 10.2975 17.2012L8.40875 19.0888C8.33308 19.164 8.27794 19.2574 8.2486 19.36C8.21926 19.4627 8.21668 19.5711 8.24112 19.675C8.26556 19.7789 8.3162 19.8748 8.38821 19.9536C8.46022 20.0323 8.55121 20.0914 8.6525 20.125L10.345 20.6888C11.97 21.23 13.7612 20.8075 14.9725 19.5963L19.9725 14.5962C21.085 13.4837 21.36 11.7837 20.6562 10.3775L19.8663 8.795C19.8219 8.70659 19.7573 8.62996 19.6776 8.57141C19.5979 8.51286 19.5054 8.47406 19.4078 8.45819C19.3102 8.44233 19.2102 8.44986 19.116 8.48016C19.0219 8.51046 18.9363 8.56267 18.8663 8.6325L16.875 10.625C16.6036 10.8962 16.4245 11.246 16.3631 11.6247C16.3016 12.0034 16.3609 12.3919 16.5325 12.735C16.7041 13.0781 16.7634 13.4666 16.7019 13.8453C16.6405 14.224 16.4613 14.5738 16.19 14.845L14.5175 16.5175V16.5162Z" fill="black"/>
</svg>
