<svg width="95" height="95" viewBox="0 0 95 95" fill="none" xmlns="http://www.w3.org/2000/svg">
<g clip-path="url(#clip0_17_98)">
<path d="M75.3599 30.48C70.0774 30.48 65.9387 34.6188 65.9387 39.9013C65.9387 45.185 70.0774 49.3238 75.3599 49.3238C80.6436 49.3238 84.7824 45.185 84.7824 39.9013C84.7824 34.6188 80.6436 30.48 75.3599 30.48ZM75.3599 45.6763C72.0686 45.6763 69.5862 43.1938 69.5862 39.9013C69.5862 36.61 72.0686 34.1275 75.3599 34.1275C78.6524 34.1275 81.1349 36.61 81.1349 39.9013C81.1349 43.1938 78.6524 45.6763 75.3599 45.6763ZM19.6399 30.48C14.3562 30.48 10.2174 34.6188 10.2174 39.9013C10.2174 45.185 14.3562 49.3238 19.6399 49.3238C24.9224 49.3238 29.0612 45.185 29.0612 39.9013C29.0612 34.6188 24.9224 30.48 19.6399 30.48ZM19.6399 45.6763C16.3474 45.6763 13.8649 43.1938 13.8649 39.9013C13.8649 36.61 16.3474 34.1275 19.6399 34.1275C22.9312 34.1275 25.4137 36.61 25.4137 39.9013C25.4137 43.1938 22.9312 45.6763 19.6399 45.6763ZM69.5874 19.64C69.5874 14.3563 65.4487 10.2175 60.1649 10.2175C54.8812 10.2175 50.7424 14.3563 50.7424 19.64C50.7424 24.9225 54.8799 29.0613 60.1649 29.0613C65.4487 29.0613 69.5874 24.9225 69.5874 19.64ZM60.1649 25.4138C56.8724 25.4138 54.3899 22.9313 54.3899 19.64C54.3899 16.3475 56.8724 13.865 60.1649 13.865C63.4574 13.865 65.9399 16.3475 65.9399 19.64C65.9399 22.9313 63.4574 25.4138 60.1649 25.4138ZM34.8362 10.2175C29.5524 10.2175 25.4137 14.3563 25.4137 19.64C25.4137 24.9225 29.5524 29.0613 34.8362 29.0613C40.1187 29.0613 44.2574 24.9225 44.2574 19.64C44.2574 14.3563 40.1187 10.2175 34.8362 10.2175ZM34.8362 25.4138C31.5437 25.4138 29.0612 22.9313 29.0612 19.64C29.0612 16.3475 31.5437 13.865 34.8362 13.865C38.1274 13.865 40.6099 16.3475 40.6099 19.64C40.6099 22.9313 38.1274 25.4138 34.8362 25.4138ZM47.4999 0.0862719C21.3549 0.0875219 0.0874023 21.355 0.0874023 47.5C0.0874023 73.645 21.3537 94.9125 47.4999 94.9125C52.7824 94.9125 56.9212 90.775 56.9212 85.4913C56.9212 83.0438 56.0124 80.7875 54.3611 79.1375C53.3999 78.175 52.8712 76.8338 52.8712 75.3625C52.8712 72.0688 55.3536 69.5863 58.6449 69.5863H67.7624C82.7337 69.5863 94.9124 57.4075 94.9124 42.4363C94.9124 19.0838 73.6461 0.085022 47.4999 0.085022V0.0862719ZM67.7624 65.9388H58.6449C53.3624 65.9388 49.2236 70.0775 49.2236 75.3613C49.2236 77.8088 50.1324 80.065 51.7824 81.715C52.7449 82.6775 53.2736 84.0188 53.2736 85.49C53.2736 88.7838 50.7912 91.2663 47.4999 91.2663C23.3674 91.2663 3.73365 71.6325 3.73365 47.5C3.73365 23.3675 23.3674 3.73377 47.4999 3.73377C71.6324 3.73377 91.2662 21.0963 91.2662 42.435C91.2662 55.395 80.7224 65.9388 67.7624 65.9388Z" fill="black"/>
</g>
<defs>
<clipPath id="clip0_17_98">
<rect width="95" height="95" fill="white"/>
</clipPath>
</defs>
</svg>
