<svg width="44" height="44" viewBox="0 0 44 44" fill="none" xmlns="http://www.w3.org/2000/svg">
<circle cx="22" cy="22" r="21" fill="white" stroke="#2FC3FF" stroke-width="2"/>
<path d="M21.5 17.0921C18.5073 17.0921 16.092 19.5073 16.092 22.5C16.092 25.4927 18.5073 27.9079 21.5 27.9079C24.4926 27.9079 26.9079 25.4927 26.9079 22.5C26.9079 19.5073 24.4926 17.0921 21.5 17.0921ZM21.5 26.0148C19.5646 26.0148 17.9852 24.4354 17.9852 22.5C17.9852 20.5647 19.5646 18.9853 21.5 18.9853C23.4353 18.9853 25.0147 20.5647 25.0147 22.5C25.0147 24.4354 23.4353 26.0148 21.5 26.0148ZM27.1293 15.6103C26.4306 15.6103 25.8664 16.1745 25.8664 16.8732C25.8664 17.572 26.4306 18.1362 27.1293 18.1362C27.8281 18.1362 28.3923 17.5746 28.3923 16.8732C28.3897 16.1719 27.8281 15.6103 27.1293 15.6103Z" fill="black"/>
<path d="M32.0416 22.5C32.0416 21.0445 32.0548 19.6022 31.973 18.1494C31.8913 16.4619 31.5063 14.9643 30.2724 13.7303C29.0357 12.4937 27.5407 12.1113 25.8532 12.0296C24.3978 11.9479 22.9555 11.961 21.5026 11.961C20.0472 11.961 18.6049 11.9479 17.1521 12.0296C15.4646 12.1113 13.9669 12.4963 12.7329 13.7303C11.4963 14.9669 11.114 16.4619 11.0322 18.1494C10.9505 19.6049 10.9637 21.0472 10.9637 22.5C10.9637 23.9528 10.9505 25.3978 11.0322 26.8506C11.114 28.5381 11.4989 30.0357 12.7329 31.2697C13.9695 32.5063 15.4646 32.8887 17.1521 32.9704C18.6075 33.0521 20.0498 33.039 21.5026 33.039C22.9581 33.039 24.4004 33.0521 25.8532 32.9704C27.5407 32.8887 29.0384 32.5037 30.2724 31.2697C31.509 30.0331 31.8913 28.5381 31.973 26.8506C32.0574 25.3978 32.0416 23.9555 32.0416 22.5ZM29.7213 28.7174C29.5288 29.1973 29.2968 29.5559 28.925 29.925C28.5532 30.2968 28.1973 30.5288 27.7174 30.7213C26.3305 31.2724 23.0372 31.1484 21.5 31.1484C19.9628 31.1484 16.6669 31.2724 15.28 30.7239C14.8001 30.5314 14.4415 30.2994 14.0724 29.9276C13.7006 29.5559 13.4686 29.1999 13.2761 28.72C12.7276 27.3305 12.8516 24.0372 12.8516 22.5C12.8516 20.9628 12.7276 17.6669 13.2761 16.28C13.4686 15.8001 13.7006 15.4415 14.0724 15.0724C14.4441 14.7032 14.8001 14.4686 15.28 14.2761C16.6669 13.7276 19.9628 13.8516 21.5 13.8516C23.0372 13.8516 26.3331 13.7276 27.72 14.2761C28.1999 14.4686 28.5585 14.7006 28.9276 15.0724C29.2994 15.4441 29.5314 15.8001 29.7239 16.28C30.2724 17.6669 30.1484 20.9628 30.1484 22.5C30.1484 24.0372 30.2724 27.3305 29.7213 28.7174Z" fill="black"/>
</svg>
