<svg width="44" height="44" viewBox="0 0 44 44" fill="none" xmlns="http://www.w3.org/2000/svg">
<circle cx="22" cy="22" r="21" fill="white" stroke="#2FC3FF" stroke-width="2"/>
<path d="M21.5 9.12499C18.2526 9.09199 15.125 10.3497 12.8046 12.6216C10.4841 14.8936 9.16062 17.9939 9.125 21.2412C9.13751 23.8076 9.96306 26.3039 11.4831 28.3717C13.0031 30.4394 15.1393 31.9723 17.585 32.75C18.2037 32.8625 18.4287 32.4912 18.4287 32.165V30.1062C14.9862 30.8375 14.255 28.4862 14.255 28.4862C14.0258 27.7481 13.5386 27.1172 12.8825 26.7087C11.7575 25.9662 12.9725 25.9775 12.9725 25.9775C13.3614 26.0295 13.7334 26.1688 14.0607 26.3851C14.388 26.6014 14.6622 26.8889 14.8625 27.2262C15.2116 27.8316 15.7845 28.2757 16.4578 28.463C17.131 28.6503 17.8509 28.5657 18.4625 28.2275C18.5254 27.6114 18.8044 27.0375 19.25 26.6075C16.505 26.3037 13.625 25.2687 13.625 20.6225C13.6005 19.4105 14.0483 18.2365 14.8737 17.3487C14.4978 16.3082 14.5422 15.1621 14.9975 14.1537C14.9975 14.1537 16.0437 13.8275 18.3725 15.3912C20.3996 14.8511 22.5329 14.8511 24.56 15.3912C26.9225 13.8275 27.935 14.1537 27.935 14.1537C28.3903 15.1621 28.4347 16.3082 28.0587 17.3487C28.9034 18.2202 29.3755 19.3864 29.375 20.6C29.375 25.2575 26.4725 26.2812 23.75 26.585C24.0481 26.8744 24.2784 27.2263 24.4243 27.6153C24.5702 28.0044 24.628 28.4209 24.5937 28.835V32.1537C24.5937 32.5475 24.8187 32.8625 25.4375 32.7387C27.8762 31.9562 30.0053 30.423 31.5206 28.3581C33.0359 26.2933 33.8599 23.8024 33.875 21.2412C33.8394 17.9939 32.5159 14.8936 30.1954 12.6216C27.8749 10.3497 24.7474 9.09199 21.5 9.12499Z" fill="black"/>
</svg>
