<svg width="87" height="87" viewBox="0 0 87 87" fill="none" xmlns="http://www.w3.org/2000/svg">
<path d="M3.625 72.5V62.35C3.625 60.2958 4.15365 58.4078 5.21094 56.6859C6.26823 54.9641 7.67292 53.65 9.425 52.7438C13.1708 50.8708 16.9771 49.4661 20.8438 48.5297C24.7104 47.5932 28.6375 47.125 32.625 47.125C36.6125 47.125 40.5396 47.5932 44.4062 48.5297C48.2729 49.4661 52.0792 50.8708 55.825 52.7438C57.5771 53.65 58.9818 54.9641 60.0391 56.6859C61.0964 58.4078 61.625 60.2958 61.625 62.35V72.5H3.625ZM68.875 72.5V61.625C68.875 58.9667 68.1349 56.4141 66.6547 53.9672C65.1745 51.5203 63.075 49.4208 60.3563 47.6688C63.4375 48.0312 66.3375 48.6505 69.0563 49.5266C71.775 50.4026 74.3125 51.475 76.6688 52.7438C78.8438 53.9521 80.5052 55.2964 81.6531 56.7766C82.801 58.2568 83.375 59.8729 83.375 61.625V72.5H68.875ZM32.625 43.5C28.6375 43.5 25.224 42.0802 22.3844 39.2406C19.5448 36.401 18.125 32.9875 18.125 29C18.125 25.0125 19.5448 21.599 22.3844 18.7594C25.224 15.9198 28.6375 14.5 32.625 14.5C36.6125 14.5 40.026 15.9198 42.8656 18.7594C45.7052 21.599 47.125 25.0125 47.125 29C47.125 32.9875 45.7052 36.401 42.8656 39.2406C40.026 42.0802 36.6125 43.5 32.625 43.5ZM68.875 29C68.875 32.9875 67.4552 36.401 64.6156 39.2406C61.776 42.0802 58.3625 43.5 54.375 43.5C53.7104 43.5 52.8646 43.4245 51.8375 43.2734C50.8104 43.1224 49.9646 42.9563 49.3 42.775C50.9313 40.8417 52.1849 38.6969 53.0609 36.3406C53.937 33.9844 54.375 31.5375 54.375 29C54.375 26.4625 53.937 24.0156 53.0609 21.6594C52.1849 19.3031 50.9313 17.1583 49.3 15.225C50.1458 14.9229 50.9917 14.7266 51.8375 14.6359C52.6833 14.5453 53.5292 14.5 54.375 14.5C58.3625 14.5 61.776 15.9198 64.6156 18.7594C67.4552 21.599 68.875 25.0125 68.875 29ZM10.875 65.25H54.375V62.35C54.375 61.6854 54.2089 61.0813 53.8766 60.5375C53.5443 59.9938 53.1063 59.5708 52.5625 59.2688C49.3 57.6375 46.0073 56.4141 42.6844 55.5984C39.3615 54.7828 36.0083 54.375 32.625 54.375C29.2417 54.375 25.8885 54.7828 22.5656 55.5984C19.2427 56.4141 15.95 57.6375 12.6875 59.2688C12.1438 59.5708 11.7057 59.9938 11.3734 60.5375C11.0411 61.0813 10.875 61.6854 10.875 62.35V65.25ZM32.625 36.25C34.6188 36.25 36.3255 35.5401 37.7453 34.1203C39.1651 32.7005 39.875 30.9937 39.875 29C39.875 27.0063 39.1651 25.2995 37.7453 23.8797C36.3255 22.4599 34.6188 21.75 32.625 21.75C30.6313 21.75 28.9245 22.4599 27.5047 23.8797C26.0849 25.2995 25.375 27.0063 25.375 29C25.375 30.9937 26.0849 32.7005 27.5047 34.1203C28.9245 35.5401 30.6313 36.25 32.625 36.25Z" fill="#4CB0FF"/>
</svg>
