<svg width="44" height="44" viewBox="0 0 44 44" fill="none" xmlns="http://www.w3.org/2000/svg">
<circle cx="22" cy="22" r="21" fill="white" stroke="#2FC3FF" stroke-width="2"/>
<path d="M15.8581 12.104C15.8581 12.824 15.5971 13.436 15.0751 13.94C14.5531 14.444 13.8781 14.696 13.0501 14.696C12.2581 14.696 11.6101 14.444 11.1061 13.94C10.6021 13.436 10.3501 12.824 10.3501 12.104C10.3501 11.348 10.6021 10.727 11.1061 10.241C11.6101 9.75499 12.2761 9.51199 13.1041 9.51199C13.9321 9.51199 14.5891 9.75499 15.0751 10.241C15.5611 10.727 15.8221 11.348 15.8581 12.104ZM10.5121 33.434V16.748H15.6961V33.434H10.5121ZM18.7741 22.094C18.7741 20.546 18.7381 18.764 18.6661 16.748H23.1481L23.4181 19.07H23.5261C24.6061 17.27 26.3161 16.37 28.6561 16.37C30.4561 16.37 31.9051 16.973 33.0031 18.179C34.1011 19.385 34.6501 21.176 34.6501 23.552V33.434H29.4661V24.2C29.4661 21.788 28.5841 20.582 26.8201 20.582C25.5601 20.582 24.6781 21.23 24.1741 22.526C24.0661 22.742 24.0121 23.174 24.0121 23.822V33.434H18.7741V22.094Z" fill="black"/>
</svg>
