<svg width="73" height="73" viewBox="0 0 73 73" fill="none" xmlns="http://www.w3.org/2000/svg">
<path d="M18.2501 69.9584C16.5772 69.9584 15.145 69.3628 13.9537 68.1714C12.7624 66.9801 12.1667 65.548 12.1667 63.8751V9.12508C12.1667 7.45217 12.7624 6.02005 13.9537 4.82873C15.145 3.63741 16.5772 3.04175 18.2501 3.04175H48.6667C50.3397 3.04175 51.7718 3.63741 52.9631 4.82873C54.1544 6.02005 54.7501 7.45217 54.7501 9.12508V21.2917H48.6667V18.2501H18.2501V54.7501H48.6667V51.7084H54.7501V63.8751C54.7501 65.548 54.1544 66.9801 52.9631 68.1714C51.7718 69.3628 50.3397 69.9584 48.6667 69.9584H18.2501ZM18.2501 60.8334V63.8751H48.6667V60.8334H18.2501ZM45.473 48.6668L32.5459 35.7397L36.8042 31.4813L45.473 40.1501L62.6584 22.9647L66.9167 27.223L45.473 48.6668ZM18.2501 12.1667H48.6667V9.12508H18.2501V12.1667Z" fill="#4CB0FF"/>
</svg>
