<svg width="95" height="95" viewBox="0 0 95 95" fill="none" xmlns="http://www.w3.org/2000/svg">
<g clip-path="url(#clip0_16_86)">
<path d="M35.4023 80.1563H15.0664C14.4263 80.1563 13.916 80.583 13.916 81.1118V82.9023C13.916 83.4312 14.4355 83.8579 15.0664 83.8579H35.3931C36.0239 83.8579 36.5435 83.4312 36.5435 82.9023V81.1118C36.5527 80.583 36.0332 80.1563 35.4023 80.1563ZM35.4395 72.4189H15.0293C14.3892 72.4189 13.8696 72.8457 13.8696 73.3745V75.165C13.8696 75.6938 14.3892 76.1206 15.0293 76.1206H35.4395C36.0796 76.1206 36.5991 75.6938 36.5991 75.165V73.3745C36.5991 72.8457 36.0796 72.4189 35.4395 72.4189ZM15.0664 68.3926H35.3931C36.0239 68.3926 36.5435 67.9658 36.5435 67.437V65.6465C36.5435 65.1177 36.0239 64.6909 35.3931 64.6909H15.0664C14.4263 64.6909 13.916 65.1177 13.916 65.6465V67.437C13.916 67.9658 14.4355 68.3926 15.0664 68.3926Z" fill="#01141A"/>
<path d="M90.6489 0H4.35107C1.94824 0 0 1.94824 0 4.35107V90.6489C0 93.0518 1.94824 95 4.35107 95H90.6489C93.0518 95 95 93.0518 95 90.6489V4.35107C95 1.94824 93.0518 0 90.6489 0ZM88.9141 84.5723C88.9141 86.9751 86.9658 88.9233 84.563 88.9233H10.4277C8.0249 88.9233 6.07666 86.9751 6.07666 84.563V10.4277C6.07666 8.0249 8.0249 6.07666 10.4277 6.07666H84.563C86.9658 6.07666 88.9141 8.0249 88.9141 10.4277V84.5723Z" fill="#01141A"/>
<path d="M19.2876 31.7935H75.7124C78.6812 31.7935 81.084 29.3906 81.084 26.4219V18.7217C81.084 15.7529 78.6812 13.3501 75.7124 13.3501H19.2876C16.3188 13.3501 13.916 15.7529 13.916 18.7217V26.4219C13.916 29.3906 16.3188 31.7935 19.2876 31.7935ZM18.5547 18.7217C18.5547 18.3135 18.8794 17.9888 19.2876 17.9888H75.7124C76.1206 17.9888 76.4453 18.3135 76.4453 18.7217V26.4219C76.4453 26.8301 76.1206 27.1548 75.7124 27.1548H19.2876C18.8794 27.1548 18.5547 26.8301 18.5547 26.4219V18.7217ZM74.8125 37.6382H49.1143C45.6538 37.6382 42.8428 40.4399 42.8428 43.9097V77.605C42.8428 81.0654 45.6445 83.8765 49.1143 83.8765H74.8125C78.2729 83.8765 81.084 81.0747 81.084 77.605V43.9097C81.084 40.4399 78.2822 37.6382 74.8125 37.6382ZM76.4453 77.5957C76.4453 78.4956 75.7124 79.2285 74.8125 79.2285H49.1143C48.2144 79.2285 47.4814 78.4956 47.4814 77.5957V43.9097C47.4814 43.0098 48.2144 42.2769 49.1143 42.2769H74.8125C75.7124 42.2769 76.4453 43.0098 76.4453 43.9097V77.5957ZM25.2344 60.2749C31.4873 60.2749 36.5527 55.2095 36.5527 48.9565C36.5527 42.7036 31.4873 37.6382 25.2344 37.6382C18.9814 37.6382 13.916 42.7036 13.916 48.9565C13.916 55.2095 18.9814 60.2749 25.2344 60.2749ZM25.2344 41.3491C29.4277 41.3491 32.8418 44.7632 32.8418 48.9565C32.8418 53.1499 29.4277 56.564 25.2344 56.564C21.041 56.564 17.627 53.1499 17.627 48.9565C17.627 44.7632 21.041 41.3491 25.2344 41.3491Z" fill="#01141A"/>
</g>
<defs>
<clipPath id="clip0_16_86">
<rect width="95" height="95" fill="white"/>
</clipPath>
</defs>
</svg>
