<svg width="87" height="87" viewBox="0 0 87 87" fill="none" xmlns="http://www.w3.org/2000/svg">
<path d="M72.3187 57.8188L66.7 52.2C69.3583 49.7229 71.4427 46.7927 72.9531 43.4094C74.4635 40.0261 75.2188 36.4313 75.2188 32.625C75.2188 28.8188 74.4635 25.2542 72.9531 21.9313C71.4427 18.6084 69.3583 15.7084 66.7 13.2313L72.3187 7.43127C75.7021 10.6334 78.3906 14.4094 80.3844 18.7594C82.3781 23.1094 83.375 27.7313 83.375 32.625C83.375 37.5188 82.3781 42.1407 80.3844 46.4907C78.3906 50.8407 75.7021 54.6167 72.3187 57.8188ZM60.7188 46.2188L54.9188 40.4188C56.0063 39.3917 56.8823 38.2287 57.5469 36.9297C58.2115 35.6308 58.5438 34.1959 58.5438 32.625C58.5438 31.0542 58.2115 29.6193 57.5469 28.3203C56.8823 27.0214 56.0063 25.8584 54.9188 24.8313L60.7188 19.0313C62.6521 20.7834 64.1625 22.8224 65.25 25.1485C66.3375 27.4745 66.8813 29.9667 66.8813 32.625C66.8813 35.2834 66.3375 37.7755 65.25 40.1016C64.1625 42.4276 62.6521 44.4667 60.7188 46.2188ZM32.625 47.125C28.6375 47.125 25.224 45.7052 22.3844 42.8657C19.5448 40.0261 18.125 36.6125 18.125 32.625C18.125 28.6375 19.5448 25.224 22.3844 22.3844C25.224 19.5448 28.6375 18.125 32.625 18.125C36.6125 18.125 40.026 19.5448 42.8656 22.3844C45.7052 25.224 47.125 28.6375 47.125 32.625C47.125 36.6125 45.7052 40.0261 42.8656 42.8657C40.026 45.7052 36.6125 47.125 32.625 47.125ZM3.625 76.125V65.975C3.625 63.9813 4.13854 62.1084 5.16563 60.3563C6.19271 58.6042 7.6125 57.275 9.425 56.3688C12.5063 54.7979 15.9802 53.4688 19.8469 52.3813C23.7135 51.2938 27.9729 50.75 32.625 50.75C37.2771 50.75 41.5365 51.2938 45.4031 52.3813C49.2698 53.4688 52.7438 54.7979 55.825 56.3688C57.6375 57.275 59.0573 58.6042 60.0844 60.3563C61.1115 62.1084 61.625 63.9813 61.625 65.975V76.125H3.625ZM10.875 68.875H54.375V65.975C54.375 65.3104 54.2089 64.7063 53.8766 64.1625C53.5443 63.6188 53.1063 63.1959 52.5625 62.8938C50.3875 61.8063 47.5932 60.7188 44.1797 59.6313C40.7661 58.5438 36.9146 58 32.625 58C28.3354 58 24.4839 58.5438 21.0703 59.6313C17.6568 60.7188 14.8625 61.8063 12.6875 62.8938C12.1438 63.1959 11.7057 63.6188 11.3734 64.1625C11.0411 64.7063 10.875 65.3104 10.875 65.975V68.875ZM32.625 39.875C34.6188 39.875 36.3255 39.1651 37.7453 37.7453C39.1651 36.3255 39.875 34.6188 39.875 32.625C39.875 30.6313 39.1651 28.9245 37.7453 27.5047C36.3255 26.0849 34.6188 25.375 32.625 25.375C30.6313 25.375 28.9245 26.0849 27.5047 27.5047C26.0849 28.9245 25.375 30.6313 25.375 32.625C25.375 34.6188 26.0849 36.3255 27.5047 37.7453C28.9245 39.1651 30.6313 39.875 32.625 39.875Z" fill="#008EFE"/>
</svg>
