<svg width="87" height="87" viewBox="0 0 87 87" fill="none" xmlns="http://www.w3.org/2000/svg">
<path d="M43.5 58C48.0312 58 51.8828 56.4141 55.0547 53.2422C58.2266 50.0703 59.8125 46.2188 59.8125 41.6875C59.8125 37.1562 58.2266 33.3047 55.0547 30.1328C51.8828 26.9609 48.0312 25.375 43.5 25.375C38.9688 25.375 35.1172 26.9609 31.9453 30.1328C28.7734 33.3047 27.1875 37.1562 27.1875 41.6875C27.1875 46.2188 28.7734 50.0703 31.9453 53.2422C35.1172 56.4141 38.9688 58 43.5 58ZM43.5 51.475C40.7812 51.475 38.4703 50.5234 36.5672 48.6203C34.6641 46.7172 33.7125 44.4063 33.7125 41.6875C33.7125 38.9688 34.6641 36.6578 36.5672 34.7547C38.4703 32.8516 40.7812 31.9 43.5 31.9C46.2188 31.9 48.5297 32.8516 50.4328 34.7547C52.3359 36.6578 53.2875 38.9688 53.2875 41.6875C53.2875 44.4063 52.3359 46.7172 50.4328 48.6203C48.5297 50.5234 46.2188 51.475 43.5 51.475ZM43.5 68.875C34.6792 68.875 26.6438 66.413 19.3938 61.4891C12.1438 56.5651 6.8875 49.9646 3.625 41.6875C6.8875 33.4104 12.1438 26.8099 19.3938 21.8859C26.6438 16.962 34.6792 14.5 43.5 14.5C52.3208 14.5 60.3563 16.962 67.6063 21.8859C74.8563 26.8099 80.1125 33.4104 83.375 41.6875C80.1125 49.9646 74.8563 56.5651 67.6063 61.4891C60.3563 66.413 52.3208 68.875 43.5 68.875ZM43.5 61.625C50.3271 61.625 56.5953 59.8276 62.3047 56.2328C68.0141 52.638 72.3792 47.7896 75.4 41.6875C72.3792 35.5854 68.0141 30.737 62.3047 27.1422C56.5953 23.5474 50.3271 21.75 43.5 21.75C36.6729 21.75 30.4047 23.5474 24.6953 27.1422C18.9859 30.737 14.6208 35.5854 11.6 41.6875C14.6208 47.7896 18.9859 52.638 24.6953 56.2328C30.4047 59.8276 36.6729 61.625 43.5 61.625Z" fill="#4CB0FF"/>
</svg>
