<svg width="95" height="95" viewBox="0 0 95 95" fill="none" xmlns="http://www.w3.org/2000/svg">
<g clip-path="url(#clip0_16_92)">
<path d="M91.2297 19.0891C90.7562 17.1979 90.0271 15.3801 89.0625 13.6859L90.8438 10.1234L84.9062 4.18594L81.3438 5.96719C79.6535 4.97682 77.8356 4.22267 75.9406 3.72578L74.6492 0H66.3219L65.0602 3.77031C63.1634 4.26177 61.3447 5.01622 59.657 6.01172L56.0945 4.23047L50.157 10.168L51.9531 13.6859C50.9628 15.3762 50.2086 17.1941 49.7117 19.0891L46.0156 20.3508V24.5219H7.65937C5.62919 24.5258 3.68327 25.334 2.24771 26.7696C0.81215 28.2051 0.00392308 30.1511 0 32.1813L0 78.1969C0.00392308 80.2271 0.81215 82.173 2.24771 83.6085C3.68327 85.0441 5.62919 85.8523 7.65937 85.8562H27.5797V91.9867H21.4492V95H73.5508V91.9422H67.4203V85.8117H87.3406C89.3708 85.8078 91.3167 84.9996 92.7523 83.564C94.1879 82.1284 94.9961 80.1825 95 78.1523V20.3508L91.2297 19.0891ZM64.3477 91.9422H30.6523V85.8117H64.3477V91.9422ZM87.3406 82.7391H7.65937C6.44153 82.7391 5.27335 82.2563 4.41082 81.3966C3.54828 80.5368 3.06174 79.3702 3.05781 78.1523V76.668H91.9422V78.1523C91.9383 79.3702 91.4517 80.5368 90.5892 81.3966C89.7266 82.2563 88.5585 82.7391 87.3406 82.7391ZM91.9422 73.5508H3.05781V32.1813C3.05781 30.9608 3.54262 29.7904 4.40558 28.9275C5.26854 28.0645 6.43896 27.5797 7.65937 27.5797H46.0156V28.693L49.7859 29.9398C50.254 31.8328 50.9834 33.6513 51.9531 35.343L50.1719 38.9055L56.1094 44.843L59.6719 43.0617C61.3596 44.0572 63.1782 44.8117 65.075 45.3031L66.307 48.9844H74.6492L75.9109 45.2141C77.8021 44.7406 79.6199 44.0115 81.3141 43.0469L84.8766 44.8281L90.8141 38.8906L89.0625 35.343C90.058 33.6553 90.8124 31.8366 91.3039 29.9398L92.0164 29.7023L91.9422 73.5508ZM91.9422 26.4813L88.632 27.5797L88.4391 28.4258C87.9746 30.5629 87.1299 32.5991 85.9453 34.4375L85.4703 35.1797L87.0437 38.2969L84.268 41.0727L81.1359 39.4992L80.4086 39.9742C78.571 41.1635 76.5348 42.0131 74.3969 42.4828L73.5508 42.6609L72.4375 46.0156H68.5188L67.4203 42.7055L66.5742 42.5273C64.4363 42.0577 62.4001 41.208 60.5625 40.0187L59.8203 39.5438L56.7031 41.1172L53.9273 38.2969L55.4859 35.1797L55.0258 34.4375C53.8365 32.5999 52.9869 30.5637 52.5172 28.4258L52.3391 27.5797L48.9844 26.4813V22.5625L52.2945 21.4492L52.4727 20.6031C52.9423 18.4652 53.792 16.429 54.9813 14.5914L55.4414 13.8641L53.9273 10.732L56.7031 7.95625L59.8203 9.52969L60.5625 9.05469C62.3977 7.86397 64.4351 7.01883 66.5742 6.56094L67.4203 6.36797L68.5188 3.05781H72.4375L73.5508 6.36797L74.3969 6.56094C76.534 7.02543 78.5702 7.87009 80.4086 9.05469L81.1359 9.52969L84.268 7.95625L87.0437 10.732L85.4703 13.8641L85.9453 14.5914C87.136 16.4266 87.9812 18.464 88.4391 20.6031L88.632 21.4492L91.9422 22.5625V26.4813Z" fill="black"/>
<path d="M70.4781 9.18829C67.4454 9.18829 64.4808 10.0876 61.9592 11.7725C59.4376 13.4573 57.4723 15.8521 56.3117 18.654C55.1512 21.4558 54.8475 24.5389 55.4392 27.5133C56.0308 30.4877 57.4912 33.2199 59.6356 35.3644C61.7801 37.5088 64.5123 38.9692 67.4867 39.5609C70.4611 40.1525 73.5442 39.8488 76.346 38.6883C79.1479 37.5277 81.5427 35.5624 83.2275 33.0408C84.9124 30.5192 85.8117 27.5546 85.8117 24.5219C85.8117 20.4552 84.1962 16.555 81.3206 13.6794C78.445 10.8038 74.5449 9.18829 70.4781 9.18829ZM70.4781 36.768C68.0525 36.768 65.6814 36.0485 63.6648 34.7006C61.6482 33.3527 60.0767 31.4369 59.1491 29.1957C58.2215 26.9544 57.9796 24.4884 58.4539 22.1096C58.9282 19.7308 60.0974 17.5461 61.8136 15.832C63.5298 14.1179 65.7159 12.9513 68.0953 12.4799C70.4746 12.0085 72.9403 12.2534 75.1805 13.1837C77.4206 14.114 79.3345 15.6878 80.6799 17.706C82.0254 19.7243 82.742 22.0963 82.7391 24.5219C82.7351 27.7711 81.4416 30.8859 79.1427 33.1821C76.8437 35.4782 73.7274 36.768 70.4781 36.768Z" fill="black"/>
<path d="M70.478 18.3914C69.2655 18.3914 68.0803 18.751 67.0721 19.4246C66.064 20.0982 65.2782 21.0557 64.8142 22.1759C64.3502 23.2961 64.2288 24.5287 64.4654 25.7179C64.7019 26.9071 65.2858 27.9994 66.1431 28.8568C67.0005 29.7141 68.0928 30.298 69.282 30.5346C70.4712 30.7711 71.7039 30.6497 72.8241 30.1857C73.9443 29.7217 74.9017 28.9359 75.5753 27.9278C76.249 26.9196 76.6085 25.7344 76.6085 24.5219C76.6046 22.8972 75.9574 21.3402 74.8086 20.1913C73.6598 19.0425 72.1027 18.3953 70.478 18.3914ZM70.478 27.5797C69.8697 27.5797 69.275 27.3991 68.7694 27.0608C68.2638 26.7225 67.87 26.2418 67.6379 25.6794C67.4058 25.1171 67.3458 24.4986 67.4655 23.9021C67.5853 23.3057 67.8794 22.7582 68.3106 22.3291C68.7418 21.9 69.2907 21.6085 69.8877 21.4916C70.4847 21.3748 71.103 21.4377 71.6642 21.6726C72.2254 21.9074 72.7042 22.3035 73.0401 22.8108C73.3759 23.318 73.5536 23.9135 73.5507 24.5219C73.5468 25.3342 73.2213 26.112 72.6455 26.685C72.0697 27.258 71.2904 27.5797 70.478 27.5797ZM9.18818 36.768V38.2524C9.18818 39.0633 8.86602 39.8411 8.29257 40.4146C7.71912 40.988 6.94135 41.3102 6.13037 41.3102V44.3828C6.53697 44.3827 6.93951 44.4638 7.31442 44.6211C7.68934 44.7785 8.0291 45.0091 8.31384 45.2993C8.59857 45.5896 8.82256 45.9337 8.97269 46.3116C9.12282 46.6895 9.19608 47.0935 9.18818 47.5V48.9844C9.18818 50.2048 9.67299 51.3752 10.536 52.2382C11.3989 53.1011 12.5693 53.5859 13.7897 53.5859H15.2741V50.5578H13.7897C13.3961 50.5578 13.0185 50.4014 12.7401 50.1231C12.4618 49.8447 12.3054 49.4671 12.3054 49.0735V47.5C12.3056 46.6294 12.1204 45.7688 11.762 44.9754C11.4037 44.1819 10.8805 43.4739 10.2272 42.8984C10.8816 42.3271 11.4058 41.622 11.7643 40.8307C12.1228 40.0394 12.3073 39.1804 12.3054 38.3117V36.8274C12.3054 36.4337 12.4618 36.0561 12.7401 35.7777C13.0185 35.4994 13.3961 35.343 13.7897 35.343H15.2741V32.1813H13.7897C12.5719 32.1813 11.4037 32.664 10.5412 33.5238C9.67865 34.3835 9.19211 35.5501 9.18818 36.768ZM56.6882 52.1016V50.6172C56.6882 49.3994 56.2054 48.2312 55.3457 47.3686C54.4859 46.5061 53.3193 46.0196 52.1015 46.0156H50.6171V48.9844H52.1015C52.4951 48.9844 52.8727 49.1408 53.1511 49.4192C53.4294 49.6975 53.5858 50.0751 53.5858 50.4688V51.9531C53.5839 52.8218 53.7684 53.6808 54.1269 54.4721C54.4854 55.2634 55.0096 55.9685 55.664 56.5399C55.0107 57.1153 54.4875 57.8233 54.1292 58.6168C53.7709 59.4102 53.5856 60.2708 53.5858 61.1414V62.6258C53.5858 63.0195 53.4294 63.397 53.1511 63.6754C52.8727 63.9538 52.4951 64.1102 52.1015 64.1102H50.6171V67.1828H52.1015C53.3193 67.1789 54.4859 66.6924 55.3457 65.8298C56.2054 64.9673 56.6882 63.7991 56.6882 62.5813V61.0969C56.6921 60.2845 57.0176 59.5068 57.5934 58.9338C58.1692 58.3608 58.9485 58.0391 59.7608 58.0391V55.1594C58.9485 55.1594 58.1692 54.8377 57.5934 54.2647C57.0176 53.6917 56.6921 52.9139 56.6882 52.1016ZM18.3913 33.7102H47.4999V36.768H18.3913V33.7102ZM24.5218 39.8406H47.4999V42.8984H24.5218V39.8406ZM18.3913 39.8406H21.4491V42.8984H18.3913V39.8406ZM18.3913 46.0156H47.4999V48.9844H18.3913V46.0156ZM18.3913 52.1016H47.4999V55.1594H18.3913V52.1016ZM44.4421 58.232H47.4999V61.2899H44.4421V58.232ZM18.3913 58.232H41.3694V61.2899H18.3913V58.232ZM18.3913 64.3477H47.4999V67.4203H18.3913V64.3477Z" fill="black"/>
</g>
<defs>
<clipPath id="clip0_16_92">
<rect width="95" height="95" fill="white"/>
</clipPath>
</defs>
</svg>
